<?xml version="1.0" encoding="UTF-8"?>
<svg id="Layer_1" xmlns="http://www.w3.org/2000/svg" version="1.1" viewBox="0 0 1417.32 513.93">
  <g>
    <path d="M4.73,377.07c-2.63,0-4.73-2.1-4.73-4.73l2.63-176.7L0,13.67c0-2.63,2.1-4.73,4.73-4.73h167.76c76.26,0,133.05,25.77,133.05,92.03,0,43.65-21.56,67.32-61,80.99,48.38,10.52,73.1,43.12,73.1,86.77,0,76.26-71.52,108.34-141.99,108.34H4.73ZM99.4,76.78l-2.1,76.78h71.52c26.29,0,41.55-13.67,41.55-38.39s-17.36-38.39-41.55-38.39h-69.42ZM97.29,219.3l2.1,89.93h69.42c31.03,0,49.96-11.57,49.96-46.28,0-32.08-19.46-43.65-49.96-43.65h-71.52Z"/>
    <path d="M563.83,12.62l119.91,359.19c1.05,3.68-1.05,5.26-4.21,5.26h-90.98c-2.63,0-4.73-1.58-5.26-4.21l-24.72-80.46h-128.85l-23.66,80.46c-.53,2.63-2.63,4.21-5.26,4.21h-90.46c-3.16,0-4.73-1.58-3.68-5.26L429.19,12.62c1.05-2.63,3.15-3.68,5.78-3.68h123.59c2.63,0,4.21,1.05,5.26,3.68ZM492.3,77.31l-40.49,138.84h83.09l-42.6-138.84Z"/>
    <path d="M787.71,372.34c0,2.63-2.1,4.73-4.73,4.73h-79.94c-2.63,0-4.73-2.1-4.73-4.73l1.58-177.76-1.58-180.91c0-2.63,2.1-4.73,4.73-4.73h103.6c2.63,0,4.73,1.05,5.79,3.16l128.85,229.29-2.63-54.69V13.67c0-2.63,2.1-4.73,4.73-4.73h79.94c2.63,0,4.73,2.1,4.73,4.73l-2.1,180.91,2.1,177.76c0,2.63-2.1,4.73-4.73,4.73h-106.76c-2.63,0-4.21-1.05-5.26-3.16l-126.22-227.19,2.63,64.69v160.93Z"/>
    <path d="M1043.93,193.01c0-115.7,76.78-193.01,187.75-193.01,97.29,0,157.77,46.28,178.28,124.11.53,3.16-1.05,5.26-4.21,5.26h-92.03c-2.63,0-4.73-1.05-5.26-4.21-11.04-34.18-35.76-52.06-75.2-52.06-58.9,0-88.35,45.75-88.35,120.43s29.98,119.38,89.93,119.38c43.65,0,74.68-24.19,78.36-69.95h-83.62c-2.63,0-4.73-2.1-4.73-4.73v-61c0-2.63,2.1-4.73,4.73-4.73h183.01c2.63,0,4.73,2.1,4.73,5.79,0,139.36-67.84,207.73-182.49,207.73s-190.9-79.94-190.9-193.01Z"/>
  </g>
  <g>
    <path d="M28.42,510.44c0,.76-.61,1.37-1.37,1.37H1.37c-.76,0-1.37-.61-1.37-1.37l.61-51.37-.61-52.28c0-.76.61-1.37,1.37-1.37h25.68c.76,0,1.37.61,1.37,1.37l-.61,52.28.61,51.37Z"/>
    <path d="M61.26,510.44c0,.76-.61,1.37-1.37,1.37h-25.23c-.76,0-1.37-.61-1.37-1.37l.46-37.23v-38.3c0-.76.61-1.37,1.37-1.37h23.56c.91,0,1.37.46,1.37,1.37l-.46,8.05c5.32-7.45,14.59-11.25,24.77-11.25,17.48,0,27.81,11.7,27.81,29.64v17.17l.46,31.92c0,.76-.61,1.37-1.37,1.37h-25.08c-.76,0-1.37-.61-1.37-1.37l.46-31.92v-15.2c0-7.6-4.1-11.85-9.73-11.85-8.05,0-14.74,8.66-14.74,24.77v2.28l.46,31.92Z"/>
    <path d="M200.29,406.79l-.3,53.8.46,49.85c0,.76-.61,1.37-1.37,1.37h-24.47c-.91,0-1.37-.46-1.37-1.37l.46-7.45c-5.47,6.53-13.22,10.33-23.1,10.33-22.19,0-34.04-17.63-34.04-40.43s13.68-40.88,35.26-40.88c8.97,0,16.11,3.04,21.28,8.82l-.15-34.04c0-.76.61-1.37,1.37-1.37h24.62c.76,0,1.37.61,1.37,1.37ZM173.85,473.05c.15-15.65-4.86-23.1-14.44-23.25-9.73-.15-15.05,7.14-15.05,22.49s5.47,23.4,14.74,23.4,14.59-7.14,14.74-22.64Z"/>
    <path d="M205.73,483.23v-16.57l-.46-31.76c0-.76.61-1.37,1.37-1.37h25.08c.76,0,1.37.61,1.37,1.37l-.46,31.76v15.96c0,6.99,3.95,11.09,9.57,11.09,7.14,0,14.74-6.38,14.74-24.62v-2.43l-.3-31.76c0-.76.61-1.37,1.37-1.37h25.23c.76,0,1.37.61,1.37,1.37l-.46,37.08.15,38.45c0,.76-.61,1.37-1.37,1.37h-23.71c-.91,0-1.37-.46-1.37-1.37l.46-8.21c-5.62,7.75-14.59,11.4-24.77,11.4-17.48,0-27.81-11.85-27.81-30.39Z"/>
    <path d="M288.89,487.18c0-.91.46-1.37,1.37-1.37h23.86c.76,0,1.37.46,1.52,1.37.76,6.84,5.32,9.88,13.68,9.88,7.75,0,11.55-2.43,11.55-7.14,0-12.46-50,.15-50-32.22,0-16.57,13.83-26.14,35.11-26.14s35.41,8.66,37.69,24.92c.15,1.06-.46,1.52-1.37,1.52h-22.64c-.76,0-1.22-.46-1.37-1.22-1.22-5.47-4.71-8.81-11.85-8.81-5.93,0-9.57,1.98-9.57,6.84,0,13.37,50-.46,50,32.52,0,16.57-15.5,26.44-37.54,26.44s-39.06-8.97-40.43-26.6Z"/>
    <path d="M404.23,415.3l-.15,18.24h17.17c.76,0,1.37.61,1.37,1.37v16.26c0,.76-.61,1.37-1.37,1.37h-17.17l.15,33.13c0,6.84,3.5,8.51,7.6,8.51s6.69-.76,9.12-1.37c.91-.3,1.52.3,1.52,1.22v14.59c0,.76-.3,1.37-1.06,1.67-5.17,1.82-10.79,3.19-16.26,3.19-14.89,0-28.27-7.45-28.27-26.44l.3-34.5h-8.97c-.76,0-1.37-.61-1.37-1.37v-16.26c0-.76.61-1.37,1.37-1.37h8.81l-.15-18.24c0-.76.61-1.37,1.37-1.37h24.62c.76,0,1.37.61,1.37,1.37Z"/>
    <path d="M455.09,510.44c0,.76-.61,1.37-1.37,1.37h-24.47c-.76,0-1.37-.61-1.37-1.37l.61-37.54-.61-37.99c0-.76.61-1.37,1.37-1.37h24.32c.91,0,1.37.46,1.37,1.37l-.61,11.25c6.23-8.81,15.65-13.22,26.44-13.22.91,0,2.13.15,3.04.3.76.15,1.22.76,1.22,1.52v17.33c0,.91-.46,1.37-1.37,1.37-.76-.15-1.37-.15-1.98-.15-16.26,0-27.2,9.42-26.6,27.51v29.64Z"/>
    <path d="M516.72,406.79v19.3c0,.76-.61,1.37-1.37,1.37h-25.08c-.76,0-1.37-.61-1.37-1.37v-19.3c0-.76.61-1.37,1.37-1.37h25.08c.76,0,1.37.61,1.37,1.37ZM516.72,510.44c0,.76-.61,1.37-1.37,1.37h-24.92c-.76,0-1.37-.61-1.37-1.37l.46-37.08-.46-38.45c0-.76.61-1.37,1.37-1.37h24.92c.76,0,1.37.61,1.37,1.37l-.46,38.45.46,37.08Z"/>
    <path d="M575.35,486.57c.3-.76.76-1.22,1.52-1.22h23.4c.91,0,1.52.46,1.37,1.37-2.28,13.53-15.81,27.2-38.75,27.2-26.14,0-41.64-16.87-41.64-41.03s16.11-41.49,40.73-41.49c26.44,0,41.19,16.26,41.64,45.59,0,.91-.61,1.37-1.37,1.37h-53.8c1.06,13.22,5.93,17.48,14.44,17.48,6.23,0,10.64-2.74,12.46-9.27ZM549.06,462.56h25.99c-.46-7.45-4.56-13.68-12.46-13.68-6.99,0-11.7,3.8-13.53,13.68Z"/>
    <path d="M606.04,487.18c0-.91.46-1.37,1.37-1.37h23.86c.76,0,1.37.46,1.52,1.37.76,6.84,5.32,9.88,13.68,9.88,7.75,0,11.55-2.43,11.55-7.14,0-12.46-50,.15-50-32.22,0-16.57,13.83-26.14,35.11-26.14s35.41,8.66,37.69,24.92c.15,1.06-.46,1.52-1.37,1.52h-22.64c-.76,0-1.22-.46-1.37-1.22-1.22-5.47-4.71-8.81-11.85-8.81-5.93,0-9.57,1.98-9.57,6.84,0,13.37,50-.46,50,32.52,0,16.57-15.5,26.44-37.54,26.44s-39.06-8.97-40.43-26.6Z"/>
  </g>
</svg>